<mxfile host="app.diagrams.net" modified="2020-12-13T22:03:13.517Z" agent="5.0 (Windows NT 10.0; Win64; x64) AppleWebKit/537.36 (KHTML, like Gecko) Chrome/87.0.4280.88 Safari/537.36" etag="TN5j6GlrfkMAOXgfNNjj" version="14.0.1" type="github">
  <diagram id="dyUUBy_NAAdf6itU9qyx" name="Page-1">
    <mxGraphModel dx="2239" dy="823" grid="1" gridSize="10" guides="1" tooltips="1" connect="1" arrows="1" fold="1" page="1" pageScale="1" pageWidth="827" pageHeight="1169" math="0" shadow="0">
      <root>
        <mxCell id="0" />
        <mxCell id="1" parent="0" />
        <mxCell id="l-AyB5VLCFYy7J8i2lol-11" style="rounded=1;orthogonalLoop=1;jettySize=auto;html=1;exitX=0;exitY=1;exitDx=0;exitDy=0;entryX=1;entryY=0;entryDx=0;entryDy=0;startArrow=none;startFill=0;" parent="1" source="l-AyB5VLCFYy7J8i2lol-2" target="l-AyB5VLCFYy7J8i2lol-4" edge="1">
          <mxGeometry relative="1" as="geometry" />
        </mxCell>
        <mxCell id="l-AyB5VLCFYy7J8i2lol-12" style="edgeStyle=none;rounded=1;orthogonalLoop=1;jettySize=auto;html=1;exitX=0.5;exitY=1;exitDx=0;exitDy=0;entryX=0.5;entryY=0;entryDx=0;entryDy=0;startArrow=none;startFill=0;" parent="1" source="l-AyB5VLCFYy7J8i2lol-2" target="l-AyB5VLCFYy7J8i2lol-3" edge="1">
          <mxGeometry relative="1" as="geometry" />
        </mxCell>
        <mxCell id="l-AyB5VLCFYy7J8i2lol-13" style="edgeStyle=none;rounded=1;orthogonalLoop=1;jettySize=auto;html=1;exitX=1;exitY=1;exitDx=0;exitDy=0;entryX=0;entryY=0;entryDx=0;entryDy=0;startArrow=none;startFill=0;" parent="1" source="l-AyB5VLCFYy7J8i2lol-2" target="l-AyB5VLCFYy7J8i2lol-5" edge="1">
          <mxGeometry relative="1" as="geometry" />
        </mxCell>
        <mxCell id="l-AyB5VLCFYy7J8i2lol-2" value="&lt;font style=&quot;font-size: 24px&quot;&gt;&lt;u&gt;&lt;b&gt;SEOS&lt;/b&gt;&lt;/u&gt;&lt;/font&gt;&lt;br&gt;&lt;i&gt;Structural Entity of Open Source&lt;/i&gt;" style="shape=process;whiteSpace=wrap;html=1;backgroundOutline=1;" parent="1" vertex="1">
          <mxGeometry x="320" width="240" height="60" as="geometry" />
        </mxCell>
        <mxCell id="l-AyB5VLCFYy7J8i2lol-7" style="edgeStyle=orthogonalEdgeStyle;rounded=1;orthogonalLoop=1;jettySize=auto;html=1;startArrow=classic;startFill=1;" parent="1" edge="1">
          <mxGeometry relative="1" as="geometry">
            <mxPoint x="120" y="150" as="sourcePoint" />
            <mxPoint x="360" y="150" as="targetPoint" />
          </mxGeometry>
        </mxCell>
        <mxCell id="l-AyB5VLCFYy7J8i2lol-23" style="edgeStyle=none;rounded=1;orthogonalLoop=1;jettySize=auto;html=1;startArrow=none;startFill=0;endArrow=classic;endFill=1;" parent="1" source="l-AyB5VLCFYy7J8i2lol-4" edge="1">
          <mxGeometry relative="1" as="geometry">
            <mxPoint x="-120" y="160" as="targetPoint" />
            <Array as="points">
              <mxPoint x="-120" y="140" />
            </Array>
          </mxGeometry>
        </mxCell>
        <mxCell id="l-AyB5VLCFYy7J8i2lol-4" value="WEB" style="rounded=1;whiteSpace=wrap;html=1;" parent="1" vertex="1">
          <mxGeometry y="120" width="80" height="40" as="geometry" />
        </mxCell>
        <mxCell id="l-AyB5VLCFYy7J8i2lol-25" style="edgeStyle=none;rounded=1;orthogonalLoop=1;jettySize=auto;html=1;startArrow=none;startFill=0;endArrow=classic;endFill=1;" parent="1" source="l-AyB5VLCFYy7J8i2lol-5" edge="1">
          <mxGeometry relative="1" as="geometry">
            <mxPoint x="960" y="160" as="targetPoint" />
            <Array as="points">
              <mxPoint x="960" y="140" />
            </Array>
          </mxGeometry>
        </mxCell>
        <mxCell id="l-AyB5VLCFYy7J8i2lol-5" value="OS" style="rounded=1;whiteSpace=wrap;html=1;" parent="1" vertex="1">
          <mxGeometry x="800" y="120" width="80" height="40" as="geometry" />
        </mxCell>
        <mxCell id="l-AyB5VLCFYy7J8i2lol-10" style="edgeStyle=orthogonalEdgeStyle;rounded=1;orthogonalLoop=1;jettySize=auto;html=1;startArrow=classic;startFill=1;endArrow=classic;endFill=1;" parent="1" edge="1">
          <mxGeometry relative="1" as="geometry">
            <mxPoint x="120" y="130" as="sourcePoint" />
            <mxPoint x="760" y="130" as="targetPoint" />
            <Array as="points">
              <mxPoint x="440" y="130" />
              <mxPoint x="440" y="130" />
            </Array>
          </mxGeometry>
        </mxCell>
        <mxCell id="l-AyB5VLCFYy7J8i2lol-14" style="edgeStyle=none;rounded=1;orthogonalLoop=1;jettySize=auto;html=1;exitX=0;exitY=0.5;exitDx=0;exitDy=0;dashed=1;startArrow=classic;startFill=0;endArrow=classic;endFill=0;" parent="1" source="l-AyB5VLCFYy7J8i2lol-4" target="l-AyB5VLCFYy7J8i2lol-4" edge="1">
          <mxGeometry relative="1" as="geometry" />
        </mxCell>
        <mxCell id="l-AyB5VLCFYy7J8i2lol-17" style="edgeStyle=orthogonalEdgeStyle;rounded=1;orthogonalLoop=1;jettySize=auto;html=1;startArrow=classic;startFill=1;" parent="1" edge="1">
          <mxGeometry relative="1" as="geometry">
            <mxPoint x="520" y="150" as="sourcePoint" />
            <mxPoint x="760" y="150" as="targetPoint" />
          </mxGeometry>
        </mxCell>
        <mxCell id="l-AyB5VLCFYy7J8i2lol-24" style="edgeStyle=none;rounded=1;orthogonalLoop=1;jettySize=auto;html=1;startArrow=none;startFill=0;endArrow=classic;endFill=1;" parent="1" source="l-AyB5VLCFYy7J8i2lol-3" edge="1">
          <mxGeometry relative="1" as="geometry">
            <mxPoint x="440" y="200" as="targetPoint" />
          </mxGeometry>
        </mxCell>
        <mxCell id="l-AyB5VLCFYy7J8i2lol-3" value="LOCAL" style="rounded=1;whiteSpace=wrap;html=1;" parent="1" vertex="1">
          <mxGeometry x="400" y="120" width="80" height="40" as="geometry" />
        </mxCell>
        <mxCell id="l-AyB5VLCFYy7J8i2lol-19" value="&lt;h1&gt;Ideas / Notes:&lt;/h1&gt;&lt;p&gt;- Hybrid between Vivaldi &amp;amp; Firefox&lt;/p&gt;" style="text;html=1;strokeColor=none;fillColor=none;spacing=5;spacingTop=-20;whiteSpace=wrap;overflow=hidden;rounded=0;" parent="1" vertex="1">
          <mxGeometry x="-270" y="10" width="190" height="120" as="geometry" />
        </mxCell>
        <mxCell id="l-AyB5VLCFYy7J8i2lol-22" value="Firefox" style="rounded=1;whiteSpace=wrap;html=1;" parent="1" vertex="1">
          <mxGeometry x="-280" y="200" width="80" height="40" as="geometry" />
        </mxCell>
        <mxCell id="cCCFyEzaDmvVcuCcDJ0D-24" value="f.lux" style="rounded=1;whiteSpace=wrap;html=1;" vertex="1" parent="1">
          <mxGeometry x="280" y="480" width="80" height="40" as="geometry" />
        </mxCell>
        <mxCell id="cCCFyEzaDmvVcuCcDJ0D-26" value="" style="rounded=1;whiteSpace=wrap;html=1;" vertex="1" parent="1">
          <mxGeometry x="400" y="400" width="80" height="40" as="geometry" />
        </mxCell>
        <mxCell id="cCCFyEzaDmvVcuCcDJ0D-30" value="Libre Office" style="rounded=1;whiteSpace=wrap;html=1;" vertex="1" parent="1">
          <mxGeometry x="280" y="240" width="80" height="40" as="geometry" />
        </mxCell>
        <mxCell id="cCCFyEzaDmvVcuCcDJ0D-31" value="Typora" style="rounded=1;whiteSpace=wrap;html=1;" vertex="1" parent="1">
          <mxGeometry x="280" y="320" width="80" height="40" as="geometry" />
        </mxCell>
        <mxCell id="cCCFyEzaDmvVcuCcDJ0D-32" value="VLC" style="rounded=1;whiteSpace=wrap;html=1;" vertex="1" parent="1">
          <mxGeometry x="280" y="400" width="80" height="40" as="geometry" />
        </mxCell>
        <mxCell id="cCCFyEzaDmvVcuCcDJ0D-34" value="ShareX" style="rounded=1;whiteSpace=wrap;html=1;" vertex="1" parent="1">
          <mxGeometry x="280" y="560" width="80" height="40" as="geometry" />
        </mxCell>
        <mxCell id="cCCFyEzaDmvVcuCcDJ0D-35" value="Rainmeter" style="rounded=1;whiteSpace=wrap;html=1;" vertex="1" parent="1">
          <mxGeometry x="280" y="640" width="80" height="40" as="geometry" />
        </mxCell>
        <mxCell id="cCCFyEzaDmvVcuCcDJ0D-44" value="VLC" style="rounded=1;whiteSpace=wrap;html=1;" vertex="1" parent="1">
          <mxGeometry x="-280" y="360" width="80" height="40" as="geometry" />
        </mxCell>
        <mxCell id="cCCFyEzaDmvVcuCcDJ0D-66" value="Github" style="rounded=1;whiteSpace=wrap;html=1;" vertex="1" parent="1">
          <mxGeometry x="-280" y="280" width="80" height="40" as="geometry" />
        </mxCell>
        <mxCell id="cCCFyEzaDmvVcuCcDJ0D-89" value="" style="rounded=1;whiteSpace=wrap;html=1;" vertex="1" parent="1">
          <mxGeometry x="400" y="480" width="80" height="40" as="geometry" />
        </mxCell>
        <mxCell id="cCCFyEzaDmvVcuCcDJ0D-91" value="" style="rounded=1;whiteSpace=wrap;html=1;" vertex="1" parent="1">
          <mxGeometry x="400" y="560" width="80" height="40" as="geometry" />
        </mxCell>
        <mxCell id="cCCFyEzaDmvVcuCcDJ0D-92" value="" style="rounded=1;whiteSpace=wrap;html=1;" vertex="1" parent="1">
          <mxGeometry x="400" y="640" width="80" height="40" as="geometry" />
        </mxCell>
        <mxCell id="cCCFyEzaDmvVcuCcDJ0D-93" value="" style="rounded=1;whiteSpace=wrap;html=1;" vertex="1" parent="1">
          <mxGeometry x="400" y="320" width="80" height="40" as="geometry" />
        </mxCell>
        <mxCell id="cCCFyEzaDmvVcuCcDJ0D-94" value="" style="rounded=1;whiteSpace=wrap;html=1;" vertex="1" parent="1">
          <mxGeometry x="520" y="400" width="80" height="40" as="geometry" />
        </mxCell>
        <mxCell id="cCCFyEzaDmvVcuCcDJ0D-95" value="" style="rounded=1;whiteSpace=wrap;html=1;" vertex="1" parent="1">
          <mxGeometry x="520" y="480" width="80" height="40" as="geometry" />
        </mxCell>
        <mxCell id="cCCFyEzaDmvVcuCcDJ0D-96" value="" style="rounded=1;whiteSpace=wrap;html=1;" vertex="1" parent="1">
          <mxGeometry x="520" y="560" width="80" height="40" as="geometry" />
        </mxCell>
        <mxCell id="cCCFyEzaDmvVcuCcDJ0D-97" value="" style="rounded=1;whiteSpace=wrap;html=1;" vertex="1" parent="1">
          <mxGeometry x="520" y="640" width="80" height="40" as="geometry" />
        </mxCell>
        <mxCell id="cCCFyEzaDmvVcuCcDJ0D-98" value="" style="rounded=1;whiteSpace=wrap;html=1;" vertex="1" parent="1">
          <mxGeometry x="520" y="320" width="80" height="40" as="geometry" />
        </mxCell>
        <mxCell id="cCCFyEzaDmvVcuCcDJ0D-99" value="" style="rounded=1;whiteSpace=wrap;html=1;" vertex="1" parent="1">
          <mxGeometry x="520" y="240" width="80" height="40" as="geometry" />
        </mxCell>
        <mxCell id="cCCFyEzaDmvVcuCcDJ0D-100" value="" style="rounded=1;whiteSpace=wrap;html=1;" vertex="1" parent="1">
          <mxGeometry x="800" y="360" width="80" height="40" as="geometry" />
        </mxCell>
        <mxCell id="cCCFyEzaDmvVcuCcDJ0D-101" value="" style="rounded=1;whiteSpace=wrap;html=1;" vertex="1" parent="1">
          <mxGeometry x="800" y="440" width="80" height="40" as="geometry" />
        </mxCell>
        <mxCell id="cCCFyEzaDmvVcuCcDJ0D-102" value="" style="rounded=1;whiteSpace=wrap;html=1;" vertex="1" parent="1">
          <mxGeometry x="800" y="520" width="80" height="40" as="geometry" />
        </mxCell>
        <mxCell id="cCCFyEzaDmvVcuCcDJ0D-103" value="" style="rounded=1;whiteSpace=wrap;html=1;" vertex="1" parent="1">
          <mxGeometry x="800" y="600" width="80" height="40" as="geometry" />
        </mxCell>
        <mxCell id="cCCFyEzaDmvVcuCcDJ0D-104" value="" style="rounded=1;whiteSpace=wrap;html=1;" vertex="1" parent="1">
          <mxGeometry x="800" y="280" width="80" height="40" as="geometry" />
        </mxCell>
        <mxCell id="cCCFyEzaDmvVcuCcDJ0D-105" value="" style="rounded=1;whiteSpace=wrap;html=1;" vertex="1" parent="1">
          <mxGeometry x="800" y="200" width="80" height="40" as="geometry" />
        </mxCell>
        <mxCell id="cCCFyEzaDmvVcuCcDJ0D-106" value="" style="rounded=1;whiteSpace=wrap;html=1;" vertex="1" parent="1">
          <mxGeometry x="920" y="360" width="80" height="40" as="geometry" />
        </mxCell>
        <mxCell id="cCCFyEzaDmvVcuCcDJ0D-107" value="" style="rounded=1;whiteSpace=wrap;html=1;" vertex="1" parent="1">
          <mxGeometry x="920" y="440" width="80" height="40" as="geometry" />
        </mxCell>
        <mxCell id="cCCFyEzaDmvVcuCcDJ0D-108" value="" style="rounded=1;whiteSpace=wrap;html=1;" vertex="1" parent="1">
          <mxGeometry x="920" y="520" width="80" height="40" as="geometry" />
        </mxCell>
        <mxCell id="cCCFyEzaDmvVcuCcDJ0D-109" value="" style="rounded=1;whiteSpace=wrap;html=1;" vertex="1" parent="1">
          <mxGeometry x="920" y="600" width="80" height="40" as="geometry" />
        </mxCell>
        <mxCell id="cCCFyEzaDmvVcuCcDJ0D-110" value="" style="rounded=1;whiteSpace=wrap;html=1;" vertex="1" parent="1">
          <mxGeometry x="920" y="280" width="80" height="40" as="geometry" />
        </mxCell>
        <mxCell id="cCCFyEzaDmvVcuCcDJ0D-111" value="" style="rounded=1;whiteSpace=wrap;html=1;" vertex="1" parent="1">
          <mxGeometry x="920" y="200" width="80" height="40" as="geometry" />
        </mxCell>
        <mxCell id="cCCFyEzaDmvVcuCcDJ0D-112" value="" style="rounded=1;whiteSpace=wrap;html=1;" vertex="1" parent="1">
          <mxGeometry x="1040" y="360" width="80" height="40" as="geometry" />
        </mxCell>
        <mxCell id="cCCFyEzaDmvVcuCcDJ0D-113" value="" style="rounded=1;whiteSpace=wrap;html=1;" vertex="1" parent="1">
          <mxGeometry x="1040" y="440" width="80" height="40" as="geometry" />
        </mxCell>
        <mxCell id="cCCFyEzaDmvVcuCcDJ0D-114" value="" style="rounded=1;whiteSpace=wrap;html=1;" vertex="1" parent="1">
          <mxGeometry x="1040" y="520" width="80" height="40" as="geometry" />
        </mxCell>
        <mxCell id="cCCFyEzaDmvVcuCcDJ0D-115" value="" style="rounded=1;whiteSpace=wrap;html=1;" vertex="1" parent="1">
          <mxGeometry x="1040" y="600" width="80" height="40" as="geometry" />
        </mxCell>
        <mxCell id="cCCFyEzaDmvVcuCcDJ0D-116" value="" style="rounded=1;whiteSpace=wrap;html=1;" vertex="1" parent="1">
          <mxGeometry x="1040" y="280" width="80" height="40" as="geometry" />
        </mxCell>
        <mxCell id="cCCFyEzaDmvVcuCcDJ0D-117" value="" style="rounded=1;whiteSpace=wrap;html=1;" vertex="1" parent="1">
          <mxGeometry x="1040" y="200" width="80" height="40" as="geometry" />
        </mxCell>
        <mxCell id="cCCFyEzaDmvVcuCcDJ0D-118" value="" style="rounded=1;whiteSpace=wrap;html=1;" vertex="1" parent="1">
          <mxGeometry x="-160" y="360" width="80" height="40" as="geometry" />
        </mxCell>
        <mxCell id="cCCFyEzaDmvVcuCcDJ0D-119" value="" style="rounded=1;whiteSpace=wrap;html=1;" vertex="1" parent="1">
          <mxGeometry x="-160" y="440" width="80" height="40" as="geometry" />
        </mxCell>
        <mxCell id="cCCFyEzaDmvVcuCcDJ0D-120" value="" style="rounded=1;whiteSpace=wrap;html=1;" vertex="1" parent="1">
          <mxGeometry x="-160" y="520" width="80" height="40" as="geometry" />
        </mxCell>
        <mxCell id="cCCFyEzaDmvVcuCcDJ0D-121" value="" style="rounded=1;whiteSpace=wrap;html=1;" vertex="1" parent="1">
          <mxGeometry x="-160" y="600" width="80" height="40" as="geometry" />
        </mxCell>
        <mxCell id="cCCFyEzaDmvVcuCcDJ0D-122" value="" style="rounded=1;whiteSpace=wrap;html=1;" vertex="1" parent="1">
          <mxGeometry x="-160" y="280" width="80" height="40" as="geometry" />
        </mxCell>
        <mxCell id="cCCFyEzaDmvVcuCcDJ0D-123" value="" style="rounded=1;whiteSpace=wrap;html=1;" vertex="1" parent="1">
          <mxGeometry x="-160" y="200" width="80" height="40" as="geometry" />
        </mxCell>
        <mxCell id="cCCFyEzaDmvVcuCcDJ0D-124" value="" style="rounded=1;whiteSpace=wrap;html=1;" vertex="1" parent="1">
          <mxGeometry x="-40" y="360" width="80" height="40" as="geometry" />
        </mxCell>
        <mxCell id="cCCFyEzaDmvVcuCcDJ0D-125" value="" style="rounded=1;whiteSpace=wrap;html=1;" vertex="1" parent="1">
          <mxGeometry x="-40" y="440" width="80" height="40" as="geometry" />
        </mxCell>
        <mxCell id="cCCFyEzaDmvVcuCcDJ0D-126" value="" style="rounded=1;whiteSpace=wrap;html=1;" vertex="1" parent="1">
          <mxGeometry x="-40" y="520" width="80" height="40" as="geometry" />
        </mxCell>
        <mxCell id="cCCFyEzaDmvVcuCcDJ0D-127" value="" style="rounded=1;whiteSpace=wrap;html=1;" vertex="1" parent="1">
          <mxGeometry x="-40" y="600" width="80" height="40" as="geometry" />
        </mxCell>
        <mxCell id="cCCFyEzaDmvVcuCcDJ0D-128" value="" style="rounded=1;whiteSpace=wrap;html=1;" vertex="1" parent="1">
          <mxGeometry x="-40" y="280" width="80" height="40" as="geometry" />
        </mxCell>
        <mxCell id="cCCFyEzaDmvVcuCcDJ0D-129" value="" style="rounded=1;whiteSpace=wrap;html=1;" vertex="1" parent="1">
          <mxGeometry x="-40" y="200" width="80" height="40" as="geometry" />
        </mxCell>
        <mxCell id="cCCFyEzaDmvVcuCcDJ0D-130" value="" style="rounded=1;whiteSpace=wrap;html=1;" vertex="1" parent="1">
          <mxGeometry x="-280" y="440" width="80" height="40" as="geometry" />
        </mxCell>
        <mxCell id="cCCFyEzaDmvVcuCcDJ0D-131" value="" style="rounded=1;whiteSpace=wrap;html=1;" vertex="1" parent="1">
          <mxGeometry x="-280" y="520" width="80" height="40" as="geometry" />
        </mxCell>
        <mxCell id="cCCFyEzaDmvVcuCcDJ0D-132" value="" style="rounded=1;whiteSpace=wrap;html=1;" vertex="1" parent="1">
          <mxGeometry x="-280" y="600" width="80" height="40" as="geometry" />
        </mxCell>
        <mxCell id="cCCFyEzaDmvVcuCcDJ0D-134" value="" style="rounded=1;whiteSpace=wrap;html=1;" vertex="1" parent="1">
          <mxGeometry x="400" y="240" width="80" height="40" as="geometry" />
        </mxCell>
      </root>
    </mxGraphModel>
  </diagram>
</mxfile>
